<svg width="559" height="130" viewBox="0 0 559 130" fill="none" xmlns="http://www.w3.org/2000/svg">
<g filter="url(#filter0_d_109_35)">
<rect width="253.019" height="106.132" transform="translate(0 23.5)" fill="#0749FF"/>
<path d="M66.5095 50.0664L58.3276 50.0664C54.7111 50.0664 51.2426 51.4624 48.6853 53.9472C46.128 56.4321 44.6913 59.8023 44.6913 63.3164L44.6913 71.2664L36.5095 71.2664L36.5095 81.8664L44.6913 81.8664L44.6913 103.066L55.6004 103.066L55.6004 81.8664L63.7822 81.8664L66.5095 71.2664L55.6004 71.2664L55.6004 63.3164C55.6004 62.6136 55.8877 61.9395 56.3992 61.4426C56.9106 60.9456 57.6043 60.6664 58.3276 60.6664L66.5095 60.6664L66.5095 50.0664Z" stroke="white" stroke-width="3" stroke-linecap="round" stroke-linejoin="round"/>
<path d="M90.8495 80.0744C90.8681 79.5704 91.0175 79.1411 91.2975 78.7864C91.5775 78.4131 91.8855 78.1611 92.2215 78.0304C92.3521 77.9744 92.4828 77.9464 92.6135 77.9464C92.8001 77.9464 92.9868 78.0024 93.1735 78.1144C93.4535 78.3197 93.6308 78.7304 93.7055 79.3464V91.5264C93.6308 91.9184 93.4628 92.2824 93.2015 92.6184C92.9588 92.9357 92.6881 93.1597 92.3895 93.2904C92.2401 93.3464 92.1001 93.3744 91.9695 93.3744C91.8201 93.3744 91.6708 93.3371 91.5215 93.2624C91.2228 93.1317 90.9988 92.7957 90.8495 92.2544V91.8624C90.3641 92.1797 89.8881 92.5064 89.4215 92.8424C88.9548 93.1597 88.4135 93.3277 87.7975 93.3464C87.7601 93.3464 87.6388 93.3464 87.4335 93.3464C87.2468 93.3651 87.0228 93.3744 86.7615 93.3744C86.6121 93.3931 86.4721 93.4024 86.3415 93.4024C86.2108 93.4024 86.0708 93.3931 85.9215 93.3744C85.6415 93.3744 85.4175 93.3557 85.2495 93.3184C83.8681 93.0197 82.8135 92.5437 82.0855 91.8904C81.3761 91.2371 80.8908 90.4624 80.6295 89.5664C80.4428 88.9317 80.3495 88.2411 80.3495 87.4944C80.3495 87.1957 80.3681 86.8877 80.4055 86.5704C80.4988 85.4877 80.6855 84.3677 80.9655 83.2104C81.0401 82.8931 81.1521 82.5851 81.3015 82.2864C81.4508 81.9877 81.6001 81.6891 81.7495 81.3904C81.8988 81.0917 82.0295 80.7931 82.1415 80.4944C82.2535 80.1957 82.3281 79.8784 82.3655 79.5424C82.4961 79.1317 82.7015 78.7864 82.9815 78.5064C83.2801 78.2264 83.5881 78.0491 83.9055 77.9744H84.1015C84.3255 77.9744 84.5401 78.0491 84.7455 78.1984C84.9881 78.4037 85.1375 78.7864 85.1935 79.3464C85.1188 80.0557 84.9321 80.6904 84.6335 81.2504C84.3535 81.8104 84.0921 82.4171 83.8495 83.0704C83.5881 83.7424 83.3921 84.4704 83.2615 85.2544C83.2055 85.6651 83.1775 86.0571 83.1775 86.4304C83.1775 86.8037 83.2055 87.1584 83.2615 87.4944C83.3921 88.2037 83.6908 88.8104 84.1575 89.3144C84.6241 89.7997 85.3335 90.0891 86.2855 90.1824C86.3975 90.1824 86.5375 90.1917 86.7055 90.2104C86.8921 90.2104 87.0881 90.2104 87.2935 90.2104C87.4988 90.2104 87.7041 90.2011 87.9095 90.1824C88.1148 90.1637 88.2921 90.1357 88.4415 90.0984C88.8895 89.9677 89.3001 89.7624 89.6735 89.4824C90.0655 89.1837 90.4575 88.9037 90.8495 88.6424V80.0744ZM106.057 79.5144C106.281 79.6451 106.495 79.7944 106.701 79.9624C106.906 80.1117 107.139 80.2424 107.401 80.3544L107.121 80.2424C107.606 80.4104 107.914 80.6717 108.045 81.0264C108.101 81.2131 108.129 81.3904 108.129 81.5584C108.129 81.7451 108.091 81.9317 108.017 82.1184C107.867 82.4917 107.615 82.8091 107.261 83.0704C106.962 83.2944 106.635 83.4064 106.281 83.4064C106.206 83.4064 106.131 83.3971 106.057 83.3784C105.739 83.2664 105.431 83.1171 105.133 82.9304C104.853 82.7437 104.563 82.5664 104.265 82.3984C103.985 82.2117 103.686 82.0717 103.369 81.9784C103.201 81.9224 103.023 81.8944 102.837 81.8944C102.669 81.8944 102.491 81.9224 102.305 81.9784C101.651 82.1277 101.017 82.4357 100.401 82.9024C99.8032 83.3504 99.3085 83.8917 98.9165 84.5264C98.5245 85.1424 98.2912 85.8144 98.2165 86.5424C98.1979 86.6731 98.1885 86.8037 98.1885 86.9344C98.1885 87.5317 98.3379 88.1104 98.6365 88.6704C98.7485 88.8571 98.8699 89.0251 99.0005 89.1744C99.1499 89.3237 99.2992 89.4731 99.4485 89.6224C99.9152 89.6784 100.382 89.7064 100.849 89.7064C101.502 89.7064 102.174 89.6411 102.865 89.5104C104.022 89.3051 105.086 88.9411 106.057 88.4184C106.411 88.2691 106.71 88.1944 106.953 88.1944C107.121 88.1944 107.27 88.2224 107.401 88.2784C107.718 88.4464 107.905 88.7077 107.961 89.0624C107.979 89.1371 107.989 89.2211 107.989 89.3144C107.989 89.5944 107.914 89.8931 107.765 90.2104C107.578 90.6397 107.279 90.9851 106.869 91.2464C106.439 91.4891 106.01 91.6944 105.581 91.8624C105.151 92.0304 104.703 92.1891 104.237 92.3384C103.957 92.4131 103.49 92.5064 102.837 92.6184C102.202 92.7304 101.53 92.8144 100.821 92.8704C100.466 92.8891 100.121 92.8984 99.7845 92.8984C99.4485 92.8984 99.1219 92.8891 98.8045 92.8704C98.1699 92.8144 97.7125 92.6464 97.4325 92.3664C96.4245 91.3397 95.7992 90.2197 95.5565 89.0064C95.4445 88.4837 95.3885 87.9611 95.3885 87.4384C95.3885 86.7664 95.4819 86.0944 95.6685 85.4224C95.9859 84.2651 96.5459 83.1731 97.3485 82.1464C98.1512 81.1197 99.0939 80.2611 100.177 79.5704C100.494 79.3651 100.83 79.2157 101.185 79.1224C101.539 79.0291 101.903 78.9357 102.277 78.8424C102.594 78.7491 102.93 78.7024 103.285 78.7024C103.583 78.7024 103.901 78.7397 104.237 78.8144C104.909 78.9637 105.515 79.1971 106.057 79.5144ZM114.503 86.7664C114.465 86.7291 114.428 86.6731 114.391 86.5984C114.092 86.8037 113.793 86.9904 113.495 87.1584C113.215 87.3264 112.935 87.4757 112.655 87.6064V91.3304C112.58 91.7224 112.412 92.0864 112.151 92.4224C111.908 92.7397 111.637 92.9637 111.339 93.0944C111.189 93.1504 111.049 93.1784 110.919 93.1784C110.769 93.1784 110.62 93.1411 110.471 93.0664C110.172 92.9357 109.948 92.5997 109.799 92.0584V74.1104C109.817 73.6064 109.967 73.1771 110.247 72.8224C110.527 72.4491 110.835 72.1971 111.171 72.0664C111.301 72.0104 111.432 71.9824 111.563 71.9824C111.749 71.9824 111.936 72.0384 112.123 72.1504C112.403 72.3557 112.58 72.7664 112.655 73.3824V84.3304C113.196 83.9944 113.747 83.6024 114.307 83.1544C114.867 82.7064 115.427 82.2397 115.987 81.7544C116.547 81.2691 117.088 80.8024 117.611 80.3544C118.152 79.8877 118.665 79.4771 119.151 79.1224C119.487 78.9731 119.776 78.8984 120.019 78.8984C120.149 78.8984 120.271 78.9171 120.383 78.9544C120.681 79.0851 120.887 79.2904 120.999 79.5704C121.036 79.7197 121.055 79.8784 121.055 80.0464C121.055 80.2144 121.036 80.4011 120.999 80.6064C120.887 80.9984 120.691 81.3531 120.411 81.6704C119.869 82.0811 119.309 82.5384 118.731 83.0424C118.171 83.5464 117.592 84.0504 116.995 84.5544C117.984 85.5624 118.945 86.5891 119.879 87.6344C120.812 88.6611 121.773 89.6784 122.763 90.6864C122.893 90.9477 122.959 91.2184 122.959 91.4984C122.959 91.5917 122.949 91.6851 122.931 91.7784C122.875 92.1704 122.735 92.5064 122.511 92.7864C122.305 93.0664 122.035 93.2531 121.699 93.3464C121.587 93.3837 121.475 93.4024 121.363 93.4024C121.101 93.4024 120.831 93.3277 120.551 93.1784C119.524 92.1144 118.516 91.0411 117.527 89.9584C116.556 88.8757 115.548 87.8117 114.503 86.7664ZM128.23 76.0144C128.249 75.5104 128.398 75.0811 128.678 74.7264C128.958 74.3531 129.266 74.1011 129.602 73.9704C129.733 73.9144 129.864 73.8864 129.994 73.8864C130.181 73.8864 130.368 73.9424 130.554 74.0544C130.834 74.2597 131.012 74.6704 131.086 75.2864C131.068 75.8277 131.049 76.3597 131.03 76.8824C131.012 77.4051 130.993 77.9371 130.974 78.4784C131.646 78.3851 132.318 78.3011 132.99 78.2264C133.681 78.1517 134.381 78.0957 135.09 78.0584C135.538 78.2077 135.837 78.4411 135.986 78.7584C136.061 78.9451 136.098 79.1317 136.098 79.3184C136.098 79.4491 136.08 79.5891 136.042 79.7384C135.93 80.0744 135.734 80.3917 135.454 80.6904C135.174 80.9704 134.848 81.1571 134.474 81.2504C133.858 81.2691 133.242 81.3157 132.626 81.3904C132.029 81.4651 131.432 81.5491 130.834 81.6424C130.797 82.3331 130.769 83.0237 130.75 83.7144C130.732 84.4051 130.713 85.0957 130.694 85.7864C130.694 86.0104 130.685 86.2811 130.666 86.5984C130.666 86.8971 130.666 87.2144 130.666 87.5504C130.666 87.8864 130.676 88.2224 130.694 88.5584C130.732 88.8757 130.778 89.1557 130.834 89.3984C131.357 89.3984 131.87 89.4357 132.374 89.5104C132.654 89.5477 132.953 89.5664 133.27 89.5664C133.494 89.5664 133.728 89.5571 133.97 89.5384C134.12 89.5011 134.297 89.4824 134.502 89.4824C134.726 89.4637 134.913 89.4264 135.062 89.3704C135.398 89.0157 135.734 88.8104 136.07 88.7544C136.145 88.7357 136.22 88.7264 136.294 88.7264C136.537 88.7264 136.752 88.7917 136.938 88.9224C137.162 89.1091 137.302 89.3891 137.358 89.7624C137.377 89.8371 137.386 89.9117 137.386 89.9864C137.386 90.3037 137.284 90.6677 137.078 91.0784C136.761 91.6757 136.285 92.0957 135.65 92.3384C135.445 92.4131 135.137 92.4877 134.726 92.5624C134.316 92.6371 133.868 92.6931 133.382 92.7304C132.953 92.7864 132.524 92.8144 132.094 92.8144C132.001 92.8144 131.908 92.8051 131.814 92.7864C131.273 92.7864 130.76 92.7491 130.274 92.6744C129.808 92.5997 129.397 92.4784 129.042 92.3104C128.688 92.1237 128.436 91.8811 128.286 91.5824C128.118 91.2091 127.997 90.8077 127.922 90.3784C127.848 89.9491 127.81 89.5104 127.81 89.0624C127.792 88.9131 127.782 88.7637 127.782 88.6144C127.782 88.3157 127.792 88.0171 127.81 87.7184C127.829 87.2891 127.838 86.8877 127.838 86.5144C127.857 85.7491 127.876 84.9931 127.894 84.2464C127.913 83.4997 127.941 82.7531 127.978 82.0064C127.885 82.0064 127.801 82.0157 127.726 82.0344C127.652 82.0344 127.577 82.0344 127.502 82.0344C127.334 82.0531 127.138 82.0717 126.914 82.0904C126.746 82.1091 126.588 82.1184 126.438 82.1184C126.364 82.1184 126.289 82.1091 126.214 82.0904C125.972 82.0904 125.738 82.0717 125.514 82.0344C125.309 81.9784 125.132 81.8757 124.982 81.7264C124.758 81.4277 124.646 81.1011 124.646 80.7464V80.6624C124.665 80.2891 124.758 79.9531 124.926 79.6544C125.113 79.3557 125.365 79.1224 125.682 78.9544C125.85 78.8797 126.028 78.8424 126.214 78.8424C126.364 78.8424 126.504 78.8611 126.634 78.8984C126.69 78.8984 126.746 78.8984 126.802 78.8984C126.877 78.8797 126.942 78.8704 126.998 78.8704C127.204 78.8517 127.4 78.8424 127.586 78.8424C127.754 78.8424 127.932 78.8331 128.118 78.8144C128.156 78.3477 128.174 77.8904 128.174 77.4424C128.193 76.9757 128.212 76.4997 128.23 76.0144ZM127.194 79.2344C127.232 79.2717 127.26 79.2904 127.278 79.2904L127.25 79.2624C127.213 79.2064 127.12 79.1411 126.97 79.0664C127.008 79.1037 127.082 79.1597 127.194 79.2344ZM139.42 74.5864C139.439 74.0824 139.588 73.6531 139.868 73.2984C140.148 72.9251 140.456 72.6731 140.792 72.5424C140.923 72.4864 141.054 72.4584 141.184 72.4584C141.371 72.4584 141.558 72.5144 141.744 72.6264C142.024 72.8317 142.202 73.2424 142.276 73.8584C142.258 75.1464 142.239 76.4251 142.22 77.6944C142.202 78.9451 142.174 80.2144 142.136 81.5024C142.342 81.3717 142.538 81.2691 142.724 81.1944C142.911 81.1011 143.116 81.0077 143.34 80.9144C144.292 80.5037 145.244 80.1304 146.196 79.7944C147.148 79.4584 148.128 79.2157 149.136 79.0664C149.416 79.0104 149.715 78.9824 150.032 78.9824H150.172C150.527 79.0011 150.854 79.0664 151.152 79.1784C151.47 79.2717 151.74 79.4304 151.964 79.6544C152.207 79.8784 152.375 80.1864 152.468 80.5784C152.599 81.0637 152.683 81.5864 152.72 82.1464C152.776 82.6877 152.814 83.2011 152.832 83.6864C152.851 83.8544 152.86 84.1064 152.86 84.4424C152.879 84.7597 152.888 85.0864 152.888 85.4224V87.1864C152.888 87.8771 152.879 88.5771 152.86 89.2864C152.86 89.9771 152.851 90.6771 152.832 91.3864C152.758 91.7784 152.59 92.1424 152.328 92.4784C152.086 92.7957 151.815 93.0197 151.516 93.1504C151.367 93.2064 151.227 93.2344 151.096 93.2344C150.947 93.2344 150.798 93.1971 150.648 93.1224C150.35 92.9917 150.126 92.6557 149.976 92.1144C149.995 91.2931 150.014 90.4717 150.032 89.6504C150.07 88.8104 150.088 87.9704 150.088 87.1304C150.088 86.3091 150.06 85.4877 150.004 84.6664C149.967 83.8451 149.874 83.0237 149.724 82.2024C148.698 82.2024 147.624 82.3891 146.504 82.7624C145.403 83.1171 144.404 83.5371 143.508 84.0224C143.247 84.1717 142.995 84.3211 142.752 84.4704C142.528 84.6011 142.286 84.7317 142.024 84.8624C141.987 86.0571 141.959 87.2517 141.94 88.4464C141.922 89.6224 141.912 90.8077 141.912 92.0024C141.838 92.3944 141.67 92.7491 141.408 93.0664C141.166 93.4024 140.895 93.6357 140.596 93.7664C140.447 93.8224 140.307 93.8504 140.176 93.8504C140.027 93.8504 139.878 93.8131 139.728 93.7384C139.43 93.6077 139.206 93.2717 139.056 92.7304C139.075 89.6691 139.131 86.6451 139.224 83.6584C139.336 80.6531 139.402 77.6291 139.42 74.5864ZM154.56 80.2704C154.579 79.7664 154.728 79.3371 155.008 78.9824C155.288 78.6091 155.596 78.3571 155.932 78.2264C156.063 78.1704 156.194 78.1424 156.324 78.1424C156.511 78.1424 156.698 78.1984 156.884 78.3104C157.164 78.5157 157.342 78.9264 157.416 79.5424V91.5264C157.342 91.9184 157.174 92.2824 156.912 92.6184C156.67 92.9357 156.399 93.1597 156.1 93.2904C155.951 93.3464 155.811 93.3744 155.68 93.3744C155.531 93.3744 155.382 93.3371 155.232 93.2624C154.934 93.1317 154.71 92.7957 154.56 92.2544V80.2704ZM157.472 72.7664C157.51 72.8037 157.538 72.8411 157.556 72.8784C157.594 72.9157 157.631 72.9531 157.668 72.9904C157.911 73.1771 158.079 73.5597 158.172 74.1384C158.135 74.5117 158.06 74.8477 157.948 75.1464C157.855 75.4264 157.659 75.6971 157.36 75.9584C157.043 76.1637 156.763 76.2757 156.52 76.2944C156.483 76.3131 156.446 76.3224 156.408 76.3224C156.184 76.3224 155.914 76.2384 155.596 76.0704C155.391 75.9024 155.232 75.6877 155.12 75.4264C155.027 75.1464 154.962 74.8757 154.924 74.6144C154.962 74.0917 155.074 73.6717 155.26 73.3544C155.466 73.0371 155.811 72.7757 156.296 72.5704C156.446 72.5144 156.586 72.4864 156.716 72.4864H156.912C157.099 72.5424 157.286 72.6357 157.472 72.7664ZM160.229 91.2184C159.986 90.9011 159.865 90.5557 159.865 90.1824C159.865 90.1637 159.874 90.1451 159.893 90.1264C159.893 89.7531 159.986 89.4171 160.173 89.1184C160.36 88.8011 160.621 88.5677 160.957 88.4184C161.125 88.3624 161.312 88.3344 161.517 88.3344C161.704 88.3344 161.9 88.3624 162.105 88.4184C162.273 88.5491 162.45 88.6517 162.637 88.7264C162.842 88.7824 163.038 88.8571 163.225 88.9504C164.196 89.4171 165.176 89.7251 166.165 89.8744C166.594 89.9491 167.033 89.9864 167.481 89.9864C168.078 89.9864 168.685 89.9304 169.301 89.8184C169.376 89.7997 169.488 89.7811 169.637 89.7624C169.805 89.7251 169.973 89.6784 170.141 89.6224C170.328 89.5664 170.496 89.5104 170.645 89.4544C170.813 89.3797 170.934 89.3051 171.009 89.2304C170.43 88.9691 169.749 88.7731 168.965 88.6424C168.181 88.5117 167.388 88.3811 166.585 88.2504C165.782 88.1011 165.008 87.9237 164.261 87.7184C163.533 87.5131 162.936 87.1957 162.469 86.7664C162.114 86.4491 161.834 86.1784 161.629 85.9544C161.424 85.7304 161.265 85.4971 161.153 85.2544C161.06 85.0117 160.994 84.7411 160.957 84.4424C160.938 84.1437 160.929 83.7611 160.929 83.2944C160.929 82.7904 161.06 82.3237 161.321 81.8944C161.582 81.4651 161.928 81.0731 162.357 80.7184C162.786 80.3451 163.272 80.0184 163.813 79.7384C164.354 79.4397 164.905 79.1877 165.465 78.9824C166.025 78.7584 166.566 78.5717 167.089 78.4224C167.612 78.2731 168.06 78.1611 168.433 78.0864C168.788 78.0117 169.189 77.9371 169.637 77.8624C170.01 77.7877 170.402 77.7504 170.813 77.7504H170.953C171.401 77.7691 171.821 77.8437 172.213 77.9744C172.605 78.1051 172.941 78.3291 173.221 78.6464C173.557 79.0197 173.744 79.3931 173.781 79.7664C173.8 79.8971 173.809 80.0277 173.809 80.1584C173.809 80.4011 173.781 80.6437 173.725 80.8864C173.65 81.2597 173.548 81.6331 173.417 82.0064C173.305 82.3611 173.249 82.7157 173.249 83.0704C173.156 83.5744 172.95 83.9944 172.633 84.3304C172.316 84.6477 171.989 84.8344 171.653 84.8904C171.597 84.9091 171.541 84.9184 171.485 84.9184C171.205 84.9184 170.962 84.8064 170.757 84.5824C170.533 84.3771 170.421 84.0131 170.421 83.4904V83.2664C170.458 82.8931 170.533 82.5384 170.645 82.2024C170.757 81.8664 170.85 81.5117 170.925 81.1384C170.888 81.1011 170.85 81.0824 170.813 81.0824C170.776 81.0637 170.738 81.0451 170.701 81.0264C170.589 80.9891 170.458 80.9704 170.309 80.9704H170.197C169.992 80.9891 169.777 81.0077 169.553 81.0264C169.348 81.0451 169.142 81.0731 168.937 81.1104C168.75 81.1477 168.61 81.1757 168.517 81.1944C167.677 81.3624 166.856 81.6144 166.053 81.9504C165.25 82.2677 164.494 82.6691 163.785 83.1544C163.785 83.3784 163.869 83.5744 164.037 83.7424C164.224 83.9104 164.429 84.0597 164.653 84.1904C164.896 84.3024 165.129 84.4051 165.353 84.4984C165.596 84.5731 165.782 84.6291 165.913 84.6664C166.174 84.7597 166.529 84.8531 166.977 84.9464C167.444 85.0211 167.938 85.1051 168.461 85.1984C169.002 85.2917 169.553 85.4037 170.113 85.5344C170.673 85.6464 171.205 85.7771 171.709 85.9264C172.213 86.0757 172.652 86.2437 173.025 86.4304C173.417 86.6171 173.706 86.8317 173.893 87.0744C174.061 87.2797 174.182 87.5504 174.257 87.8864C174.313 88.1664 174.341 88.4277 174.341 88.6704V88.8384C174.322 89.2677 174.192 89.6877 173.949 90.0984C173.725 90.4904 173.436 90.8451 173.081 91.1624C172.745 91.4797 172.372 91.7597 171.961 92.0024C171.55 92.2451 171.158 92.4317 170.785 92.5624C169.609 92.9731 168.405 93.1784 167.173 93.1784C166.856 93.1784 166.529 93.1597 166.193 93.1224C164.625 92.9917 163.141 92.5997 161.741 91.9464C161.48 91.8157 161.218 91.7037 160.957 91.6104C160.714 91.5171 160.472 91.3864 160.229 91.2184ZM179.525 82.7064C179.432 82.7437 179.32 82.8091 179.189 82.9024C179.059 82.9957 178.947 83.0704 178.853 83.1264C178.555 83.3504 178.275 83.4624 178.013 83.4624C177.957 83.4624 177.911 83.4531 177.873 83.4344C177.556 83.3784 177.313 83.2291 177.145 82.9864C176.996 82.7624 176.921 82.4917 176.921 82.1744V82.0344C176.94 81.6611 177.089 81.2597 177.369 80.8304C177.612 80.5504 177.892 80.3171 178.209 80.1304C178.527 79.9251 178.853 79.7571 179.189 79.6264C179.544 79.4771 179.908 79.3557 180.281 79.2624C180.655 79.1691 181.009 79.0757 181.345 78.9824C182.148 78.7584 182.895 78.5717 183.585 78.4224C184.295 78.2544 184.985 78.1611 185.657 78.1424H185.713C186.348 78.1424 186.992 78.2451 187.645 78.4504C188.299 78.6744 188.989 79.0571 189.717 79.5984C190.035 79.8224 190.305 80.1397 190.529 80.5504C190.753 80.9611 190.903 81.3624 190.977 81.7544C191.127 82.5197 191.201 83.2851 191.201 84.0504V84.3024C191.183 85.1611 191.127 86.0197 191.033 86.8784C190.94 87.7371 190.828 88.5957 190.697 89.4544C190.567 90.3131 190.473 91.1717 190.417 92.0304C190.324 92.5157 190.128 92.9077 189.829 93.2064C189.531 93.5237 189.223 93.7197 188.905 93.7944C188.812 93.8317 188.719 93.8504 188.625 93.8504C188.401 93.8504 188.205 93.7851 188.037 93.6544C187.757 93.4677 187.608 93.1131 187.589 92.5904C187.011 92.8144 186.413 92.9637 185.797 93.0384C185.2 93.1131 184.603 93.1691 184.005 93.2064C183.352 93.2251 182.699 93.2437 182.045 93.2624C181.896 93.2811 181.747 93.2904 181.597 93.2904C181.093 93.2904 180.589 93.2531 180.085 93.1784C179.003 93.0104 178.135 92.6651 177.481 92.1424C176.828 91.6011 176.399 90.9757 176.193 90.2664C176.081 89.9304 176.025 89.5757 176.025 89.2024C176.025 88.8104 176.091 88.3997 176.221 87.9704C176.445 87.1491 176.893 86.3557 177.565 85.5904C178.051 85.0491 178.592 84.6384 179.189 84.3584C179.787 84.0597 180.412 83.8451 181.065 83.7144C181.719 83.5651 182.381 83.4717 183.053 83.4344C183.744 83.3971 184.416 83.3597 185.069 83.3224C185.349 83.3037 185.797 83.2851 186.413 83.2664H186.581C187.141 83.2664 187.711 83.3131 188.289 83.4064C188.177 82.9957 188 82.6317 187.757 82.3144C187.515 81.9971 187.179 81.7637 186.749 81.6144C186.339 81.4651 185.919 81.3811 185.489 81.3624H185.209C184.873 81.3624 184.537 81.3811 184.201 81.4184C183.772 81.4931 183.343 81.5864 182.913 81.6984C182.503 81.8104 182.092 81.9224 181.681 82.0344C181.308 82.1277 180.944 82.2304 180.589 82.3424C180.253 82.4357 179.899 82.5571 179.525 82.7064ZM188.009 88.3344C188.047 88.1291 188.084 87.9051 188.121 87.6624C188.177 87.4011 188.224 87.1304 188.261 86.8504C188.112 86.8317 187.972 86.7944 187.841 86.7384C187.729 86.6824 187.608 86.6357 187.477 86.5984C187.067 86.4677 186.647 86.4024 186.217 86.4024H185.993C185.471 86.4397 184.967 86.4771 184.481 86.5144C184.071 86.5517 183.66 86.5797 183.249 86.5984C182.857 86.5984 182.447 86.6171 182.017 86.6544C181.495 86.7104 181.009 86.8131 180.561 86.9624C180.113 87.1117 179.684 87.3731 179.273 87.7464C178.993 88.0077 178.853 88.2317 178.853 88.4184C178.853 88.4371 178.863 88.4464 178.881 88.4464C178.881 88.6517 178.965 88.8477 179.133 89.0344C179.301 89.2211 179.507 89.3891 179.749 89.5384C180.011 89.6691 180.244 89.7904 180.449 89.9024C180.673 90.0144 181.028 90.0797 181.513 90.0984C181.868 90.1357 182.241 90.1544 182.633 90.1544C182.764 90.1544 182.895 90.1451 183.025 90.1264C183.567 90.1264 184.089 90.1077 184.593 90.0704C185.097 90.0144 185.489 89.9584 185.769 89.9024C185.956 89.8651 186.171 89.8277 186.413 89.7904C186.656 89.7344 186.861 89.6784 187.029 89.6224C187.141 89.5851 187.244 89.5571 187.337 89.5384C187.431 89.5011 187.505 89.4637 187.561 89.4264L187.897 89.1744C187.916 89.0251 187.925 88.8851 187.925 88.7544C187.944 88.6237 187.972 88.4837 188.009 88.3344ZM195.473 99.3384C195.193 99.7677 194.894 100.057 194.577 100.206C194.353 100.318 194.138 100.374 193.933 100.374C193.84 100.374 193.765 100.365 193.709 100.346C193.429 100.29 193.214 100.141 193.065 99.8984C192.934 99.7117 192.869 99.4784 192.869 99.1984V99.0024C192.869 98.9651 192.869 98.8811 192.869 98.7504C192.888 98.6197 192.906 98.5171 192.925 98.4424C192.925 98.1811 192.916 97.9291 192.897 97.6864C192.897 97.4437 192.897 97.1917 192.897 96.9304V80.6904C192.972 80.2984 193.13 79.9437 193.373 79.6264C193.634 79.2904 193.914 79.0571 194.213 78.9264C194.344 78.8704 194.484 78.8424 194.633 78.8424C194.782 78.8424 194.941 78.8797 195.109 78.9544C195.389 79.1037 195.604 79.4397 195.753 79.9624V80.4664C196.313 80.2237 196.854 80.0277 197.377 79.8784C197.657 79.8037 198.114 79.7104 198.749 79.5984C199.402 79.4864 200.084 79.4024 200.793 79.3464C201.148 79.3091 201.493 79.2904 201.829 79.2904C202.165 79.2904 202.492 79.3091 202.809 79.3464C203.444 79.4024 203.901 79.5704 204.181 79.8504C205.189 80.8957 205.814 82.0157 206.057 83.2104C206.169 83.7331 206.225 84.2464 206.225 84.7504C206.225 85.4411 206.132 86.1131 205.945 86.7664C205.609 87.9424 205.04 89.0437 204.237 90.0704C203.453 91.0971 202.52 91.9557 201.437 92.6464C201.12 92.8517 200.784 93.0011 200.429 93.0944C200.074 93.1877 199.71 93.2811 199.337 93.3744C199.02 93.4491 198.693 93.4864 198.357 93.4864C198.077 93.4864 197.797 93.4584 197.517 93.4024C196.882 93.2904 196.294 93.0944 195.753 92.8144V96.2024C195.753 96.4264 195.762 96.6784 195.781 96.9584C195.8 97.2384 195.809 97.5184 195.809 97.7984C195.809 98.0784 195.781 98.3491 195.725 98.6104C195.688 98.8904 195.604 99.1331 195.473 99.3384ZM202.165 82.5944C201.698 82.5384 201.232 82.5104 200.765 82.5104C200.149 82.5104 199.524 82.5571 198.889 82.6504C197.75 82.8557 196.705 83.2011 195.753 83.6864V88.8944C196.052 89.0064 196.332 89.1557 196.593 89.3424C196.873 89.5291 197.153 89.7064 197.433 89.8744C197.713 90.0237 198.012 90.1451 198.329 90.2384C198.478 90.2757 198.637 90.2944 198.805 90.2944C198.973 90.2944 199.141 90.2757 199.309 90.2384C199.962 90.0891 200.588 89.7904 201.185 89.3424C201.801 88.8757 202.305 88.3344 202.697 87.7184C203.089 87.0837 203.332 86.4024 203.425 85.6744V85.2824C203.425 84.6851 203.276 84.1064 202.977 83.5464C202.865 83.3597 202.734 83.1917 202.585 83.0424C202.454 82.8931 202.314 82.7437 202.165 82.5944ZM210.512 99.3384C210.232 99.7677 209.933 100.057 209.616 100.206C209.392 100.318 209.177 100.374 208.972 100.374C208.879 100.374 208.804 100.365 208.748 100.346C208.468 100.29 208.253 100.141 208.104 99.8984C207.973 99.7117 207.908 99.4784 207.908 99.1984V99.0024C207.908 98.9651 207.908 98.8811 207.908 98.7504C207.927 98.6197 207.945 98.5171 207.964 98.4424C207.964 98.1811 207.955 97.9291 207.936 97.6864C207.936 97.4437 207.936 97.1917 207.936 96.9304V80.6904C208.011 80.2984 208.169 79.9437 208.412 79.6264C208.673 79.2904 208.953 79.0571 209.252 78.9264C209.383 78.8704 209.523 78.8424 209.672 78.8424C209.821 78.8424 209.98 78.8797 210.148 78.9544C210.428 79.1037 210.643 79.4397 210.792 79.9624V80.4664C211.352 80.2237 211.893 80.0277 212.416 79.8784C212.696 79.8037 213.153 79.7104 213.788 79.5984C214.441 79.4864 215.123 79.4024 215.832 79.3464C216.187 79.3091 216.532 79.2904 216.868 79.2904C217.204 79.2904 217.531 79.3091 217.848 79.3464C218.483 79.4024 218.94 79.5704 219.22 79.8504C220.228 80.8957 220.853 82.0157 221.096 83.2104C221.208 83.7331 221.264 84.2464 221.264 84.7504C221.264 85.4411 221.171 86.1131 220.984 86.7664C220.648 87.9424 220.079 89.0437 219.276 90.0704C218.492 91.0971 217.559 91.9557 216.476 92.6464C216.159 92.8517 215.823 93.0011 215.468 93.0944C215.113 93.1877 214.749 93.2811 214.376 93.3744C214.059 93.4491 213.732 93.4864 213.396 93.4864C213.116 93.4864 212.836 93.4584 212.556 93.4024C211.921 93.2904 211.333 93.0944 210.792 92.8144V96.2024C210.792 96.4264 210.801 96.6784 210.82 96.9584C210.839 97.2384 210.848 97.5184 210.848 97.7984C210.848 98.0784 210.82 98.3491 210.764 98.6104C210.727 98.8904 210.643 99.1331 210.512 99.3384ZM217.204 82.5944C216.737 82.5384 216.271 82.5104 215.804 82.5104C215.188 82.5104 214.563 82.5571 213.928 82.6504C212.789 82.8557 211.744 83.2011 210.792 83.6864V88.8944C211.091 89.0064 211.371 89.1557 211.632 89.3424C211.912 89.5291 212.192 89.7064 212.472 89.8744C212.752 90.0237 213.051 90.1451 213.368 90.2384C213.517 90.2757 213.676 90.2944 213.844 90.2944C214.012 90.2944 214.18 90.2757 214.348 90.2384C215.001 90.0891 215.627 89.7904 216.224 89.3424C216.84 88.8757 217.344 88.3344 217.736 87.7184C218.128 87.0837 218.371 86.4024 218.464 85.6744V85.2824C218.464 84.6851 218.315 84.1064 218.016 83.5464C217.904 83.3597 217.773 83.1917 217.624 83.0424C217.493 82.8931 217.353 82.7437 217.204 82.5944Z" fill="white"/>
</g>
<g filter="url(#filter1_d_109_35)">
<rect width="271.698" height="106.132" transform="translate(268.302 23.5)" fill="#FF009E"/>
<path d="M322.647 75.1768C322.959 77.1479 322.6 79.161 321.621 80.9297C320.642 82.6985 319.093 84.1328 317.194 85.0287C315.296 85.9246 313.144 86.2364 311.045 85.9198C308.947 85.6032 307.008 84.6744 305.505 83.2654C304.002 81.8563 303.012 80.0389 302.674 78.0715C302.336 76.1042 302.669 74.0871 303.625 72.3072C304.58 70.5273 306.11 69.0752 307.997 68.1574C309.883 67.2396 312.031 66.903 314.133 67.1953C316.278 67.4934 318.263 68.4303 319.796 69.8676C321.329 71.3048 322.329 73.1662 322.647 75.1768Z" stroke="#0749FF" stroke-width="6" stroke-linecap="round" stroke-linejoin="round"/>
<path d="M324.651 54.0664L300.651 54.0664C294.023 54.0664 288.651 59.1032 288.651 65.3164L288.651 87.8164C288.651 94.0296 294.023 99.0664 300.651 99.0664L324.651 99.0664C331.278 99.0664 336.651 94.0296 336.651 87.8164L336.651 65.3164C336.651 59.1032 331.278 54.0664 324.651 54.0664Z" stroke="#0749FF" stroke-width="6" stroke-linecap="round" stroke-linejoin="round"/>
<path d="M350.491 74.2224C350.51 73.7184 350.659 73.2891 350.939 72.9344C351.219 72.5611 351.527 72.3091 351.863 72.1784C351.994 72.1224 352.124 72.0944 352.255 72.0944C352.442 72.0944 352.628 72.1504 352.815 72.2624C353.095 72.4677 353.272 72.8784 353.347 73.4944V79.5424C353.814 79.3371 354.392 79.1317 355.083 78.9264C355.774 78.7024 356.474 78.5344 357.183 78.4224C357.743 78.3291 358.294 78.2824 358.835 78.2824H359.227C359.862 78.3197 360.375 78.4784 360.767 78.7584C361.476 79.2811 362.036 79.9904 362.447 80.8864C362.858 81.7824 363.128 82.7344 363.259 83.7424C363.296 84.1717 363.315 84.5917 363.315 85.0024C363.315 85.5997 363.268 86.1877 363.175 86.7664C362.988 87.7557 362.671 88.6051 362.223 89.3144C361.999 89.6877 361.728 90.0891 361.411 90.5184C361.112 90.9477 360.776 91.3584 360.403 91.7504C360.048 92.1424 359.647 92.4784 359.199 92.7584C358.751 93.0197 358.275 93.1597 357.771 93.1784C357.062 93.2157 356.511 93.2344 356.119 93.2344C355.708 93.2344 355.354 93.2064 355.055 93.1504C354.775 93.0944 354.495 93.0104 354.215 92.8984C353.935 92.7677 353.571 92.5904 353.123 92.3664C352.974 92.6651 352.778 92.9171 352.535 93.1224C352.292 93.3464 352.04 93.4771 351.779 93.5144C351.723 93.5331 351.667 93.5424 351.611 93.5424C351.406 93.5424 351.219 93.4771 351.051 93.3464C350.808 93.1784 350.622 92.8704 350.491 92.4224V74.2224ZM353.347 82.9864V88.7824C353.758 88.9877 354.131 89.1837 354.467 89.3704C354.803 89.5571 355.139 89.7157 355.475 89.8464C355.83 89.9771 356.194 90.0611 356.567 90.0984H356.847C357.146 90.0984 357.472 90.0611 357.827 89.9864C358.499 89.8184 359.031 89.4451 359.423 88.8664C359.815 88.2691 360.095 87.5971 360.263 86.8504C360.375 86.3464 360.431 85.8237 360.431 85.2824C360.431 85.0584 360.422 84.8344 360.403 84.6104C360.328 83.8637 360.16 83.2384 359.899 82.7344C359.787 82.5104 359.638 82.3144 359.451 82.1464C359.283 81.9784 359.115 81.8011 358.947 81.6144C358.667 81.5211 358.35 81.4744 357.995 81.4744H357.715C357.248 81.5117 356.772 81.5864 356.287 81.6984C355.802 81.8104 355.335 81.9504 354.887 82.1184C354.439 82.2677 354.056 82.4171 353.739 82.5664V82.5944C353.72 82.5944 353.711 82.6037 353.711 82.6224L353.347 82.9864ZM364.983 74.1104C365.002 73.6064 365.151 73.1771 365.431 72.8224C365.711 72.4491 366.019 72.1971 366.355 72.0664C366.486 72.0104 366.616 71.9824 366.747 71.9824C366.934 71.9824 367.12 72.0384 367.307 72.1504C367.587 72.3557 367.764 72.7664 367.839 73.3824V91.3304C367.764 91.7224 367.596 92.0864 367.335 92.4224C367.092 92.7397 366.822 92.9637 366.523 93.0944C366.374 93.1504 366.234 93.1784 366.103 93.1784C365.954 93.1784 365.804 93.1411 365.655 93.0664C365.356 92.9357 365.132 92.5997 364.983 92.0584V74.1104ZM371.23 93.8224C371.025 93.8597 370.838 93.8784 370.67 93.8784C370.483 93.8784 370.325 93.8504 370.194 93.7944C369.933 93.7011 369.755 93.5424 369.662 93.3184C369.569 93.1504 369.522 92.9637 369.522 92.7584C369.522 92.7024 369.531 92.6371 369.55 92.5624C369.569 92.2824 369.662 92.0024 369.83 91.7224L369.802 91.7504L369.83 91.6944C369.886 91.6011 369.933 91.5171 369.97 91.4424C370.026 91.3677 370.082 91.2931 370.138 91.2184C370.511 90.7704 370.885 90.3317 371.258 89.9024C371.631 89.4731 372.005 89.0437 372.378 88.6144C372.639 88.2971 372.901 87.9704 373.162 87.6344C373.442 87.2984 373.722 86.9717 374.002 86.6544C373.293 85.7024 372.639 84.7224 372.042 83.7144C371.463 82.7064 371.043 81.7264 370.782 80.7744C370.801 80.3824 370.913 80.0091 371.118 79.6544C371.323 79.2811 371.575 79.0011 371.874 78.8144C372.061 78.7024 372.266 78.6464 372.49 78.6464C372.583 78.6464 372.677 78.6557 372.77 78.6744C373.087 78.7491 373.358 79.0384 373.582 79.5424C373.769 80.1957 374.095 80.9237 374.562 81.7264C375.047 82.5104 375.589 83.3131 376.186 84.1344C376.69 83.5931 377.213 83.0797 377.754 82.5944C378.295 82.0904 378.883 81.6237 379.518 81.1944C379.947 80.7651 380.339 80.3451 380.694 79.9344C381.049 79.5051 381.515 79.1877 382.094 78.9824H382.318C382.691 78.9824 382.981 79.0571 383.186 79.2064C383.41 79.4117 383.531 79.6637 383.55 79.9624V80.0744C383.55 80.3357 383.485 80.6157 383.354 80.9144C383.205 81.2504 382.999 81.5397 382.738 81.7824L382.514 81.9504C382.477 81.9877 382.449 82.0064 382.43 82.0064C382.281 82.1557 382.141 82.3144 382.01 82.4824C381.879 82.6317 381.739 82.7904 381.59 82.9584C381.291 83.2944 380.965 83.5931 380.61 83.8544C380.255 84.0971 379.901 84.3677 379.546 84.6664C379.229 84.9277 378.93 85.1984 378.65 85.4784C378.37 85.7397 378.099 86.0104 377.838 86.2904C378.305 86.8691 378.706 87.3544 379.042 87.7464C379.434 88.2317 379.835 88.6891 380.246 89.1184C380.675 89.5477 381.039 90.0424 381.338 90.6024C381.45 90.8824 381.506 91.1624 381.506 91.4424C381.506 91.5917 381.497 91.7411 381.478 91.8904C381.366 92.3197 381.17 92.6744 380.89 92.9544C380.61 93.2157 380.283 93.3464 379.91 93.3464C379.91 93.3651 379.901 93.3744 379.882 93.3744C379.527 93.3744 379.191 93.1597 378.874 92.7304C378.613 92.2451 378.295 91.8157 377.922 91.4424C377.549 91.0504 377.185 90.6491 376.83 90.2384C376.643 90.0144 376.457 89.7904 376.27 89.5664C376.083 89.3237 375.887 89.0811 375.682 88.8384C375.458 89.0997 375.234 89.3611 375.01 89.6224C374.805 89.8837 374.599 90.1451 374.394 90.4064C373.965 90.9664 373.554 91.4891 373.162 91.9744C372.826 92.3851 372.481 92.7677 372.126 93.1224C371.771 93.4957 371.473 93.7291 371.23 93.8224ZM386.925 93.8224C386.72 93.8597 386.533 93.8784 386.365 93.8784C386.179 93.8784 386.02 93.8504 385.889 93.7944C385.628 93.7011 385.451 93.5424 385.357 93.3184C385.264 93.1504 385.217 92.9637 385.217 92.7584C385.217 92.7024 385.227 92.6371 385.245 92.5624C385.264 92.2824 385.357 92.0024 385.525 91.7224L385.497 91.7504L385.525 91.6944C385.581 91.6011 385.628 91.5171 385.665 91.4424C385.721 91.3677 385.777 91.2931 385.833 91.2184C386.207 90.7704 386.58 90.3317 386.953 89.9024C387.327 89.4731 387.7 89.0437 388.073 88.6144C388.335 88.2971 388.596 87.9704 388.857 87.6344C389.137 87.2984 389.417 86.9717 389.697 86.6544C388.988 85.7024 388.335 84.7224 387.737 83.7144C387.159 82.7064 386.739 81.7264 386.477 80.7744C386.496 80.3824 386.608 80.0091 386.813 79.6544C387.019 79.2811 387.271 79.0011 387.569 78.8144C387.756 78.7024 387.961 78.6464 388.185 78.6464C388.279 78.6464 388.372 78.6557 388.465 78.6744C388.783 78.7491 389.053 79.0384 389.277 79.5424C389.464 80.1957 389.791 80.9237 390.257 81.7264C390.743 82.5104 391.284 83.3131 391.881 84.1344C392.385 83.5931 392.908 83.0797 393.449 82.5944C393.991 82.0904 394.579 81.6237 395.213 81.1944C395.643 80.7651 396.035 80.3451 396.389 79.9344C396.744 79.5051 397.211 79.1877 397.789 78.9824H398.013C398.387 78.9824 398.676 79.0571 398.881 79.2064C399.105 79.4117 399.227 79.6637 399.245 79.9624V80.0744C399.245 80.3357 399.18 80.6157 399.049 80.9144C398.9 81.2504 398.695 81.5397 398.433 81.7824L398.209 81.9504C398.172 81.9877 398.144 82.0064 398.125 82.0064C397.976 82.1557 397.836 82.3144 397.705 82.4824C397.575 82.6317 397.435 82.7904 397.285 82.9584C396.987 83.2944 396.66 83.5931 396.305 83.8544C395.951 84.0971 395.596 84.3677 395.241 84.6664C394.924 84.9277 394.625 85.1984 394.345 85.4784C394.065 85.7397 393.795 86.0104 393.533 86.2904C394 86.8691 394.401 87.3544 394.737 87.7464C395.129 88.2317 395.531 88.6891 395.941 89.1184C396.371 89.5477 396.735 90.0424 397.033 90.6024C397.145 90.8824 397.201 91.1624 397.201 91.4424C397.201 91.5917 397.192 91.7411 397.173 91.8904C397.061 92.3197 396.865 92.6744 396.585 92.9544C396.305 93.2157 395.979 93.3464 395.605 93.3464C395.605 93.3651 395.596 93.3744 395.577 93.3744C395.223 93.3744 394.887 93.1597 394.569 92.7304C394.308 92.2451 393.991 91.8157 393.617 91.4424C393.244 91.0504 392.88 90.6491 392.525 90.2384C392.339 90.0144 392.152 89.7904 391.965 89.5664C391.779 89.3237 391.583 89.0811 391.377 88.8384C391.153 89.0997 390.929 89.3611 390.705 89.6224C390.5 89.8837 390.295 90.1451 390.089 90.4064C389.66 90.9664 389.249 91.4891 388.857 91.9744C388.521 92.3851 388.176 92.7677 387.821 93.1224C387.467 93.4957 387.168 93.7291 386.925 93.8224ZM411.665 72.8784C411.945 72.4677 412.243 72.1784 412.561 72.0104C412.803 71.8984 413.027 71.8424 413.233 71.8424C413.307 71.8424 413.382 71.8517 413.457 71.8704C413.718 71.9264 413.933 72.0664 414.101 72.2904C414.213 72.4957 414.269 72.7384 414.269 73.0184V73.2144C414.269 73.2517 414.259 73.3357 414.241 73.4664C414.241 73.5971 414.231 73.6997 414.213 73.7744C414.213 74.0357 414.213 74.2877 414.213 74.5304C414.231 74.7731 414.241 75.0251 414.241 75.2864V91.5264C414.166 91.9184 413.998 92.2824 413.737 92.6184C413.494 92.9357 413.223 93.1597 412.925 93.2904C412.775 93.3464 412.635 93.3744 412.505 93.3744C412.355 93.3744 412.206 93.3371 412.057 93.2624C411.758 93.1317 411.534 92.7957 411.385 92.2544V91.7504C410.825 91.9931 410.283 92.1891 409.761 92.3384C409.481 92.4131 409.014 92.5064 408.361 92.6184C407.726 92.7304 407.054 92.8144 406.345 92.8704C405.99 92.8891 405.645 92.8984 405.309 92.8984C404.973 92.8984 404.646 92.8891 404.329 92.8704C403.694 92.8144 403.237 92.6464 402.957 92.3664C401.949 91.3397 401.323 90.2197 401.081 89.0064C400.969 88.4837 400.913 87.9611 400.913 87.4384C400.913 86.7664 401.006 86.0944 401.193 85.4224C401.51 84.2651 402.07 83.1731 402.873 82.1464C403.675 81.1197 404.618 80.2611 405.701 79.5704C406.018 79.3651 406.354 79.2157 406.709 79.1224C407.063 79.0291 407.427 78.9357 407.801 78.8424C408.118 78.7677 408.445 78.7304 408.781 78.7304C409.061 78.7304 409.341 78.7491 409.621 78.7864C410.255 78.9171 410.843 79.1224 411.385 79.4024V76.0144C411.385 75.7904 411.375 75.5384 411.357 75.2584C411.338 74.9784 411.329 74.6984 411.329 74.4184C411.329 74.1384 411.347 73.8677 411.385 73.6064C411.441 73.3264 411.534 73.0837 411.665 72.8784ZM404.973 89.6224C405.439 89.6784 405.906 89.7064 406.373 89.7064C406.989 89.7064 407.623 89.6504 408.277 89.5384C409.397 89.3517 410.433 89.0157 411.385 88.5304V83.3224C411.086 83.2104 410.797 83.0611 410.517 82.8744C410.255 82.6877 409.985 82.5197 409.705 82.3704C409.425 82.2024 409.135 82.0717 408.837 81.9784C408.669 81.9411 408.491 81.9224 408.305 81.9224C408.155 81.9224 407.997 81.9411 407.829 81.9784C407.175 82.1277 406.541 82.4357 405.925 82.9024C405.327 83.3504 404.833 83.8917 404.441 84.5264C404.049 85.1424 403.815 85.8144 403.741 86.5424C403.722 86.6731 403.713 86.8037 403.713 86.9344C403.713 87.5317 403.862 88.1104 404.161 88.6704C404.273 88.8571 404.394 89.0251 404.525 89.1744C404.674 89.3237 404.823 89.4731 404.973 89.6224ZM420.684 98.0224C420.59 98.5264 420.385 98.9371 420.068 99.2544C419.75 99.5904 419.424 99.7864 419.088 99.8424C419.032 99.8611 418.976 99.8704 418.92 99.8704C418.64 99.8704 418.397 99.7584 418.192 99.5344C417.968 99.3291 417.856 98.9651 417.856 98.4424V98.2184C417.949 97.3597 418.182 96.5571 418.556 95.8104C418.948 95.0637 419.321 94.3077 419.676 93.5424L420.516 91.6944C420.348 91.0971 420.124 90.4811 419.844 89.8464C419.582 89.2117 419.293 88.5771 418.976 87.9424C418.658 87.3077 418.341 86.6824 418.024 86.0664C417.725 85.4317 417.454 84.8344 417.212 84.2744C416.988 83.7144 416.801 83.1451 416.652 82.5664C416.502 81.9877 416.297 81.4277 416.036 80.8864C415.98 80.6811 415.952 80.4851 415.952 80.2984C415.952 80.0371 415.998 79.7851 416.092 79.5424C416.26 79.1131 416.502 78.7864 416.82 78.5624C417.062 78.3757 417.324 78.2824 417.604 78.2824C417.66 78.2824 417.725 78.2917 417.8 78.3104C418.154 78.3664 418.453 78.6557 418.696 79.1784C418.957 79.7197 419.162 80.2797 419.312 80.8584C419.461 81.4371 419.648 82.0064 419.872 82.5664C420.245 83.4811 420.656 84.3864 421.104 85.2824C421.57 86.1597 422.009 87.0557 422.42 87.9704C422.681 87.4664 422.97 86.9437 423.288 86.4024C423.698 85.6931 424.109 84.9931 424.52 84.3024C424.949 83.6117 425.369 82.9117 425.78 82.2024C426.097 81.6611 426.368 81.1291 426.592 80.6064C426.816 80.0651 427.133 79.5517 427.544 79.0664C427.954 78.7117 428.337 78.5157 428.692 78.4784H428.804C429.084 78.4784 429.317 78.5717 429.504 78.7584C429.709 78.9637 429.83 79.2531 429.868 79.6264V79.7384C429.868 80.0931 429.765 80.4664 429.56 80.8584C429.224 81.2504 428.962 81.6797 428.776 82.1464C428.589 82.6131 428.365 83.0704 428.104 83.5184C427.301 84.9184 426.489 86.2997 425.668 87.6624C424.846 89.0251 424.081 90.4251 423.372 91.8624C423.334 92.0117 423.288 92.1517 423.232 92.2824C423.176 92.3944 423.11 92.4971 423.036 92.5904C422.998 92.6464 422.961 92.7304 422.924 92.8424C422.774 93.1597 422.578 93.5424 422.336 93.9904C422.112 94.4384 421.878 94.8957 421.636 95.3624C421.412 95.8477 421.206 96.3237 421.02 96.7904C420.833 97.2571 420.721 97.6677 420.684 98.0224ZM442.206 79.5144C442.43 79.6451 442.644 79.7944 442.85 79.9624C443.055 80.1117 443.288 80.2424 443.55 80.3544L443.27 80.2424C443.755 80.4104 444.063 80.6717 444.194 81.0264C444.25 81.2131 444.278 81.3904 444.278 81.5584C444.278 81.7451 444.24 81.9317 444.166 82.1184C444.016 82.4917 443.764 82.8091 443.41 83.0704C443.111 83.2944 442.784 83.4064 442.43 83.4064C442.355 83.4064 442.28 83.3971 442.206 83.3784C441.888 83.2664 441.58 83.1171 441.282 82.9304C441.002 82.7437 440.712 82.5664 440.414 82.3984C440.134 82.2117 439.835 82.0717 439.518 81.9784C439.35 81.9224 439.172 81.8944 438.986 81.8944C438.818 81.8944 438.64 81.9224 438.454 81.9784C437.8 82.1277 437.166 82.4357 436.55 82.9024C435.952 83.3504 435.458 83.8917 435.066 84.5264C434.674 85.1424 434.44 85.8144 434.366 86.5424C434.347 86.6731 434.338 86.8037 434.338 86.9344C434.338 87.5317 434.487 88.1104 434.786 88.6704C434.898 88.8571 435.019 89.0251 435.15 89.1744C435.299 89.3237 435.448 89.4731 435.598 89.6224C436.064 89.6784 436.531 89.7064 436.998 89.7064C437.651 89.7064 438.323 89.6411 439.014 89.5104C440.171 89.3051 441.235 88.9411 442.206 88.4184C442.56 88.2691 442.859 88.1944 443.102 88.1944C443.27 88.1944 443.419 88.2224 443.55 88.2784C443.867 88.4464 444.054 88.7077 444.11 89.0624C444.128 89.1371 444.138 89.2211 444.138 89.3144C444.138 89.5944 444.063 89.8931 443.914 90.2104C443.727 90.6397 443.428 90.9851 443.018 91.2464C442.588 91.4891 442.159 91.6944 441.73 91.8624C441.3 92.0304 440.852 92.1891 440.386 92.3384C440.106 92.4131 439.639 92.5064 438.986 92.6184C438.351 92.7304 437.679 92.8144 436.97 92.8704C436.615 92.8891 436.27 92.8984 435.934 92.8984C435.598 92.8984 435.271 92.8891 434.954 92.8704C434.319 92.8144 433.862 92.6464 433.582 92.3664C432.574 91.3397 431.948 90.2197 431.706 89.0064C431.594 88.4837 431.538 87.9611 431.538 87.4384C431.538 86.7664 431.631 86.0944 431.818 85.4224C432.135 84.2651 432.695 83.1731 433.498 82.1464C434.3 81.1197 435.243 80.2611 436.326 79.5704C436.643 79.3651 436.979 79.2157 437.334 79.1224C437.688 79.0291 438.052 78.9357 438.426 78.8424C438.743 78.7491 439.079 78.7024 439.434 78.7024C439.732 78.7024 440.05 78.7397 440.386 78.8144C441.058 78.9637 441.664 79.1971 442.206 79.5144ZM449.448 82.7064C449.355 82.7437 449.243 82.8091 449.112 82.9024C448.981 82.9957 448.869 83.0704 448.776 83.1264C448.477 83.3504 448.197 83.4624 447.936 83.4624C447.88 83.4624 447.833 83.4531 447.796 83.4344C447.479 83.3784 447.236 83.2291 447.068 82.9864C446.919 82.7624 446.844 82.4917 446.844 82.1744V82.0344C446.863 81.6611 447.012 81.2597 447.292 80.8304C447.535 80.5504 447.815 80.3171 448.132 80.1304C448.449 79.9251 448.776 79.7571 449.112 79.6264C449.467 79.4771 449.831 79.3557 450.204 79.2624C450.577 79.1691 450.932 79.0757 451.268 78.9824C452.071 78.7584 452.817 78.5717 453.508 78.4224C454.217 78.2544 454.908 78.1611 455.58 78.1424H455.636C456.271 78.1424 456.915 78.2451 457.568 78.4504C458.221 78.6744 458.912 79.0571 459.64 79.5984C459.957 79.8224 460.228 80.1397 460.452 80.5504C460.676 80.9611 460.825 81.3624 460.9 81.7544C461.049 82.5197 461.124 83.2851 461.124 84.0504V84.3024C461.105 85.1611 461.049 86.0197 460.956 86.8784C460.863 87.7371 460.751 88.5957 460.62 89.4544C460.489 90.3131 460.396 91.1717 460.34 92.0304C460.247 92.5157 460.051 92.9077 459.752 93.2064C459.453 93.5237 459.145 93.7197 458.828 93.7944C458.735 93.8317 458.641 93.8504 458.548 93.8504C458.324 93.8504 458.128 93.7851 457.96 93.6544C457.68 93.4677 457.531 93.1131 457.512 92.5904C456.933 92.8144 456.336 92.9637 455.72 93.0384C455.123 93.1131 454.525 93.1691 453.928 93.2064C453.275 93.2251 452.621 93.2437 451.968 93.2624C451.819 93.2811 451.669 93.2904 451.52 93.2904C451.016 93.2904 450.512 93.2531 450.008 93.1784C448.925 93.0104 448.057 92.6651 447.404 92.1424C446.751 91.6011 446.321 90.9757 446.116 90.2664C446.004 89.9304 445.948 89.5757 445.948 89.2024C445.948 88.8104 446.013 88.3997 446.144 87.9704C446.368 87.1491 446.816 86.3557 447.488 85.5904C447.973 85.0491 448.515 84.6384 449.112 84.3584C449.709 84.0597 450.335 83.8451 450.988 83.7144C451.641 83.5651 452.304 83.4717 452.976 83.4344C453.667 83.3971 454.339 83.3597 454.992 83.3224C455.272 83.3037 455.72 83.2851 456.336 83.2664H456.504C457.064 83.2664 457.633 83.3131 458.212 83.4064C458.1 82.9957 457.923 82.6317 457.68 82.3144C457.437 81.9971 457.101 81.7637 456.672 81.6144C456.261 81.4651 455.841 81.3811 455.412 81.3624H455.132C454.796 81.3624 454.46 81.3811 454.124 81.4184C453.695 81.4931 453.265 81.5864 452.836 81.6984C452.425 81.8104 452.015 81.9224 451.604 82.0344C451.231 82.1277 450.867 82.2304 450.512 82.3424C450.176 82.4357 449.821 82.5571 449.448 82.7064ZM457.932 88.3344C457.969 88.1291 458.007 87.9051 458.044 87.6624C458.1 87.4011 458.147 87.1304 458.184 86.8504C458.035 86.8317 457.895 86.7944 457.764 86.7384C457.652 86.6824 457.531 86.6357 457.4 86.5984C456.989 86.4677 456.569 86.4024 456.14 86.4024H455.916C455.393 86.4397 454.889 86.4771 454.404 86.5144C453.993 86.5517 453.583 86.5797 453.172 86.5984C452.78 86.5984 452.369 86.6171 451.94 86.6544C451.417 86.7104 450.932 86.8131 450.484 86.9624C450.036 87.1117 449.607 87.3731 449.196 87.7464C448.916 88.0077 448.776 88.2317 448.776 88.4184C448.776 88.4371 448.785 88.4464 448.804 88.4464C448.804 88.6517 448.888 88.8477 449.056 89.0344C449.224 89.2211 449.429 89.3891 449.672 89.5384C449.933 89.6691 450.167 89.7904 450.372 89.9024C450.596 90.0144 450.951 90.0797 451.436 90.0984C451.791 90.1357 452.164 90.1544 452.556 90.1544C452.687 90.1544 452.817 90.1451 452.948 90.1264C453.489 90.1264 454.012 90.1077 454.516 90.0704C455.02 90.0144 455.412 89.9584 455.692 89.9024C455.879 89.8651 456.093 89.8277 456.336 89.7904C456.579 89.7344 456.784 89.6784 456.952 89.6224C457.064 89.5851 457.167 89.5571 457.26 89.5384C457.353 89.5011 457.428 89.4637 457.484 89.4264L457.82 89.1744C457.839 89.0251 457.848 88.8851 457.848 88.7544C457.867 88.6237 457.895 88.4837 457.932 88.3344ZM462.792 74.1104C462.81 73.6064 462.96 73.1771 463.24 72.8224C463.52 72.4491 463.828 72.1971 464.164 72.0664C464.294 72.0104 464.425 71.9824 464.556 71.9824C464.742 71.9824 464.929 72.0384 465.116 72.1504C465.396 72.3557 465.573 72.7664 465.648 73.3824V91.3304C465.573 91.7224 465.405 92.0864 465.144 92.4224C464.901 92.7397 464.63 92.9637 464.332 93.0944C464.182 93.1504 464.042 93.1784 463.912 93.1784C463.762 93.1784 463.613 93.1411 463.464 93.0664C463.165 92.9357 462.941 92.5997 462.792 92.0584V74.1104ZM467.331 80.2704C467.349 79.7664 467.499 79.3371 467.779 78.9824C468.059 78.6091 468.367 78.3571 468.703 78.2264C468.833 78.1704 468.964 78.1424 469.095 78.1424C469.281 78.1424 469.468 78.1984 469.655 78.3104C469.935 78.5157 470.112 78.9264 470.187 79.5424V91.5264C470.112 91.9184 469.944 92.2824 469.683 92.6184C469.44 92.9357 469.169 93.1597 468.871 93.2904C468.721 93.3464 468.581 93.3744 468.451 93.3744C468.301 93.3744 468.152 93.3371 468.003 93.2624C467.704 93.1317 467.48 92.7957 467.331 92.2544V80.2704ZM470.243 72.7664C470.28 72.8037 470.308 72.8411 470.327 72.8784C470.364 72.9157 470.401 72.9531 470.439 72.9904C470.681 73.1771 470.849 73.5597 470.943 74.1384C470.905 74.5117 470.831 74.8477 470.719 75.1464C470.625 75.4264 470.429 75.6971 470.131 75.9584C469.813 76.1637 469.533 76.2757 469.291 76.2944C469.253 76.3131 469.216 76.3224 469.179 76.3224C468.955 76.3224 468.684 76.2384 468.367 76.0704C468.161 75.9024 468.003 75.6877 467.891 75.4264C467.797 75.1464 467.732 74.8757 467.695 74.6144C467.732 74.0917 467.844 73.6717 468.031 73.3544C468.236 73.0371 468.581 72.7757 469.067 72.5704C469.216 72.5144 469.356 72.4864 469.487 72.4864H469.683C469.869 72.5424 470.056 72.6357 470.243 72.7664ZM474.679 98.2744C474.455 97.9571 474.343 97.6211 474.343 97.2664V97.0984C474.381 96.6691 474.511 96.3051 474.735 96.0064C474.978 95.7077 475.277 95.5024 475.631 95.3904C475.725 95.3717 475.818 95.3624 475.911 95.3624C476.191 95.3624 476.471 95.4651 476.751 95.6704C476.751 95.6331 476.761 95.6144 476.779 95.6144H476.807C476.826 95.6331 476.863 95.6611 476.919 95.6984C476.975 95.7544 477.031 95.8011 477.087 95.8384C477.143 95.8757 477.19 95.9037 477.227 95.9224C477.358 95.9597 477.461 95.9877 477.535 96.0064C477.629 96.0251 477.713 96.0344 477.787 96.0344C477.862 96.0531 477.937 96.0717 478.011 96.0904C478.086 96.1091 478.189 96.1277 478.319 96.1464C478.805 96.2211 479.318 96.2864 479.859 96.3424C480.121 96.3611 480.373 96.3704 480.615 96.3704C480.877 96.3704 481.129 96.3611 481.371 96.3424C481.633 96.3051 481.894 96.2584 482.155 96.2024C482.435 96.1651 482.687 96.0811 482.911 95.9504C483.005 95.8944 483.098 95.8104 483.191 95.6984C483.285 95.6051 483.378 95.5397 483.471 95.5024C483.471 95.4837 483.481 95.4744 483.499 95.4744C483.537 95.2131 483.574 94.9517 483.611 94.6904C483.649 94.4477 483.686 94.1957 483.723 93.9344C483.761 93.6731 483.789 93.4211 483.807 93.1784C483.826 92.9544 483.845 92.7117 483.863 92.4504C483.266 92.7117 482.65 92.9077 482.015 93.0384C481.381 93.1691 480.755 93.2717 480.139 93.3464C479.841 93.3837 479.514 93.4024 479.159 93.4024C478.786 93.4024 478.403 93.3931 478.011 93.3744C477.638 93.3744 477.265 93.3464 476.891 93.2904C476.537 93.2531 476.21 93.1877 475.911 93.0944C474.978 92.8144 474.269 92.4224 473.783 91.9184C473.298 91.3957 472.971 90.8077 472.803 90.1544C472.691 89.7251 472.635 89.2584 472.635 88.7544C472.635 88.5304 472.645 88.3064 472.663 88.0824C472.738 87.3357 472.878 86.5797 473.083 85.8144C473.382 84.6757 473.793 83.6584 474.315 82.7624C474.857 81.8477 475.51 81.1011 476.275 80.5224C477.041 79.9251 477.927 79.4957 478.935 79.2344C479.626 79.0477 480.373 78.9544 481.175 78.9544C481.53 78.9544 481.885 78.9731 482.239 79.0104C482.706 79.0477 483.145 79.1037 483.555 79.1784C483.985 79.2344 484.386 79.3277 484.759 79.4584C484.946 79.2157 485.17 79.0197 485.431 78.8704C485.637 78.7584 485.833 78.7024 486.019 78.7024H486.159C486.383 78.7397 486.579 78.8704 486.747 79.0944C486.934 79.3184 487.055 79.6544 487.111 80.1024C487.093 82.0064 487.055 83.9011 486.999 85.7864C486.962 87.6717 486.869 89.5664 486.719 91.4704C486.682 91.8997 486.654 92.3664 486.635 92.8704C486.635 93.3744 486.607 93.8784 486.551 94.3824C486.495 94.9051 486.402 95.4091 486.271 95.8944C486.141 96.3797 485.945 96.8184 485.683 97.2104C485.385 97.6584 484.955 98.0411 484.395 98.3584C483.854 98.6944 483.238 98.9557 482.547 99.1424C481.857 99.3291 481.129 99.4504 480.363 99.5064C480.027 99.5251 479.701 99.5344 479.383 99.5344C478.973 99.5344 478.562 99.5157 478.151 99.4784C477.423 99.4037 476.751 99.2637 476.135 99.0584C475.538 98.8717 475.053 98.6104 474.679 98.2744ZM477.143 89.9864C477.442 90.0797 477.927 90.1357 478.599 90.1544H479.075C479.598 90.1544 480.121 90.1357 480.643 90.0984C481.353 90.0424 482.025 89.9397 482.659 89.7904C483.294 89.6411 483.751 89.4264 484.031 89.1464C484.069 88.1384 484.106 87.1491 484.143 86.1784C484.181 85.1891 484.209 84.1904 484.227 83.1824C484.19 83.1637 484.153 83.1171 484.115 83.0424C484.022 82.8557 483.826 82.7064 483.527 82.5944C483.247 82.4637 482.921 82.3704 482.547 82.3144C482.193 82.2584 481.838 82.2211 481.483 82.2024C481.129 82.1651 480.849 82.1464 480.643 82.1464H480.391C479.57 82.1464 478.851 82.3051 478.235 82.6224C477.563 82.9957 477.013 83.4904 476.583 84.1064C476.173 84.7224 475.883 85.4224 475.715 86.2064C475.566 86.8784 475.491 87.5504 475.491 88.2224V88.6424C475.491 88.8104 475.557 88.9691 475.687 89.1184C475.818 89.2677 475.977 89.3984 476.163 89.5104C476.35 89.6224 476.537 89.7251 476.723 89.8184C476.91 89.8931 477.05 89.9491 477.143 89.9864ZM499.296 80.0744C499.314 79.5704 499.464 79.1411 499.744 78.7864C500.024 78.4131 500.332 78.1611 500.668 78.0304C500.798 77.9744 500.929 77.9464 501.06 77.9464C501.246 77.9464 501.433 78.0024 501.62 78.1144C501.9 78.3197 502.077 78.7304 502.152 79.3464V91.5264C502.077 91.9184 501.909 92.2824 501.648 92.6184C501.405 92.9357 501.134 93.1597 500.836 93.2904C500.686 93.3464 500.546 93.3744 500.416 93.3744C500.266 93.3744 500.117 93.3371 499.968 93.2624C499.669 93.1317 499.445 92.7957 499.296 92.2544V91.8624C498.81 92.1797 498.334 92.5064 497.868 92.8424C497.401 93.1597 496.86 93.3277 496.244 93.3464C496.206 93.3464 496.085 93.3464 495.88 93.3464C495.693 93.3651 495.469 93.3744 495.208 93.3744C495.058 93.3931 494.918 93.4024 494.788 93.4024C494.657 93.4024 494.517 93.3931 494.368 93.3744C494.088 93.3744 493.864 93.3557 493.696 93.3184C492.314 93.0197 491.26 92.5437 490.532 91.8904C489.822 91.2371 489.337 90.4624 489.076 89.5664C488.889 88.9317 488.796 88.2411 488.796 87.4944C488.796 87.1957 488.814 86.8877 488.852 86.5704C488.945 85.4877 489.132 84.3677 489.412 83.2104C489.486 82.8931 489.598 82.5851 489.748 82.2864C489.897 81.9877 490.046 81.6891 490.196 81.3904C490.345 81.0917 490.476 80.7931 490.588 80.4944C490.7 80.1957 490.774 79.8784 490.812 79.5424C490.942 79.1317 491.148 78.7864 491.428 78.5064C491.726 78.2264 492.034 78.0491 492.352 77.9744H492.548C492.772 77.9744 492.986 78.0491 493.192 78.1984C493.434 78.4037 493.584 78.7864 493.64 79.3464C493.565 80.0557 493.378 80.6904 493.08 81.2504C492.8 81.8104 492.538 82.4171 492.296 83.0704C492.034 83.7424 491.838 84.4704 491.708 85.2544C491.652 85.6651 491.624 86.0571 491.624 86.4304C491.624 86.8037 491.652 87.1584 491.708 87.4944C491.838 88.2037 492.137 88.8104 492.604 89.3144C493.07 89.7997 493.78 90.0891 494.732 90.1824C494.844 90.1824 494.984 90.1917 495.152 90.2104C495.338 90.2104 495.534 90.2104 495.74 90.2104C495.945 90.2104 496.15 90.2011 496.356 90.1824C496.561 90.1637 496.738 90.1357 496.888 90.0984C497.336 89.9677 497.746 89.7624 498.12 89.4824C498.512 89.1837 498.904 88.9037 499.296 88.6424V80.0744ZM503.835 74.1104C503.853 73.6064 504.003 73.1771 504.283 72.8224C504.563 72.4491 504.871 72.1971 505.207 72.0664C505.337 72.0104 505.468 71.9824 505.599 71.9824C505.785 71.9824 505.972 72.0384 506.159 72.1504C506.439 72.3557 506.616 72.7664 506.691 73.3824V91.3304C506.616 91.7224 506.448 92.0864 506.187 92.4224C505.944 92.7397 505.673 92.9637 505.375 93.0944C505.225 93.1504 505.085 93.1784 504.955 93.1784C504.805 93.1784 504.656 93.1411 504.507 93.0664C504.208 92.9357 503.984 92.5997 503.835 92.0584V74.1104ZM511.874 82.7064C511.78 82.7437 511.668 82.8091 511.538 82.9024C511.407 82.9957 511.295 83.0704 511.202 83.1264C510.903 83.3504 510.623 83.4624 510.362 83.4624C510.306 83.4624 510.259 83.4531 510.222 83.4344C509.904 83.3784 509.662 83.2291 509.494 82.9864C509.344 82.7624 509.27 82.4917 509.27 82.1744V82.0344C509.288 81.6611 509.438 81.2597 509.718 80.8304C509.96 80.5504 510.24 80.3171 510.558 80.1304C510.875 79.9251 511.202 79.7571 511.538 79.6264C511.892 79.4771 512.256 79.3557 512.63 79.2624C513.003 79.1691 513.358 79.0757 513.694 78.9824C514.496 78.7584 515.243 78.5717 515.934 78.4224C516.643 78.2544 517.334 78.1611 518.006 78.1424H518.062C518.696 78.1424 519.34 78.2451 519.994 78.4504C520.647 78.6744 521.338 79.0571 522.066 79.5984C522.383 79.8224 522.654 80.1397 522.878 80.5504C523.102 80.9611 523.251 81.3624 523.326 81.7544C523.475 82.5197 523.55 83.2851 523.55 84.0504V84.3024C523.531 85.1611 523.475 86.0197 523.382 86.8784C523.288 87.7371 523.176 88.5957 523.046 89.4544C522.915 90.3131 522.822 91.1717 522.766 92.0304C522.672 92.5157 522.476 92.9077 522.178 93.2064C521.879 93.5237 521.571 93.7197 521.254 93.7944C521.16 93.8317 521.067 93.8504 520.974 93.8504C520.75 93.8504 520.554 93.7851 520.386 93.6544C520.106 93.4677 519.956 93.1131 519.938 92.5904C519.359 92.8144 518.762 92.9637 518.146 93.0384C517.548 93.1131 516.951 93.1691 516.354 93.2064C515.7 93.2251 515.047 93.2437 514.394 93.2624C514.244 93.2811 514.095 93.2904 513.946 93.2904C513.442 93.2904 512.938 93.2531 512.434 93.1784C511.351 93.0104 510.483 92.6651 509.83 92.1424C509.176 91.6011 508.747 90.9757 508.542 90.2664C508.43 89.9304 508.374 89.5757 508.374 89.2024C508.374 88.8104 508.439 88.3997 508.57 87.9704C508.794 87.1491 509.242 86.3557 509.914 85.5904C510.399 85.0491 510.94 84.6384 511.538 84.3584C512.135 84.0597 512.76 83.8451 513.414 83.7144C514.067 83.5651 514.73 83.4717 515.402 83.4344C516.092 83.3971 516.764 83.3597 517.418 83.3224C517.698 83.3037 518.146 83.2851 518.762 83.2664H518.93C519.49 83.2664 520.059 83.3131 520.638 83.4064C520.526 82.9957 520.348 82.6317 520.106 82.3144C519.863 81.9971 519.527 81.7637 519.098 81.6144C518.687 81.4651 518.267 81.3811 517.838 81.3624H517.558C517.222 81.3624 516.886 81.3811 516.55 81.4184C516.12 81.4931 515.691 81.5864 515.262 81.6984C514.851 81.8104 514.44 81.9224 514.03 82.0344C513.656 82.1277 513.292 82.2304 512.938 82.3424C512.602 82.4357 512.247 82.5571 511.874 82.7064ZM520.358 88.3344C520.395 88.1291 520.432 87.9051 520.47 87.6624C520.526 87.4011 520.572 87.1304 520.61 86.8504C520.46 86.8317 520.32 86.7944 520.19 86.7384C520.078 86.6824 519.956 86.6357 519.826 86.5984C519.415 86.4677 518.995 86.4024 518.566 86.4024H518.342C517.819 86.4397 517.315 86.4771 516.83 86.5144C516.419 86.5517 516.008 86.5797 515.598 86.5984C515.206 86.5984 514.795 86.6171 514.366 86.6544C513.843 86.7104 513.358 86.8131 512.91 86.9624C512.462 87.1117 512.032 87.3731 511.622 87.7464C511.342 88.0077 511.202 88.2317 511.202 88.4184C511.202 88.4371 511.211 88.4464 511.23 88.4464C511.23 88.6517 511.314 88.8477 511.482 89.0344C511.65 89.2211 511.855 89.3891 512.098 89.5384C512.359 89.6691 512.592 89.7904 512.798 89.9024C513.022 90.0144 513.376 90.0797 513.862 90.0984C514.216 90.1357 514.59 90.1544 514.982 90.1544C515.112 90.1544 515.243 90.1451 515.374 90.1264C515.915 90.1264 516.438 90.1077 516.942 90.0704C517.446 90.0144 517.838 89.9584 518.118 89.9024C518.304 89.8651 518.519 89.8277 518.762 89.7904C519.004 89.7344 519.21 89.6784 519.378 89.6224C519.49 89.5851 519.592 89.5571 519.686 89.5384C519.779 89.5011 519.854 89.4637 519.91 89.4264L520.246 89.1744C520.264 89.0251 520.274 88.8851 520.274 88.7544C520.292 88.6237 520.32 88.4837 520.358 88.3344Z" fill="white"/>
</g>
<defs>
<filter id="filter0_d_109_35" x="0" y="0" width="271.519" height="129.632" filterUnits="userSpaceOnUse" color-interpolation-filters="sRGB">
<feFlood flood-opacity="0" result="BackgroundImageFix"/>
<feColorMatrix in="SourceAlpha" type="matrix" values="0 0 0 0 0 0 0 0 0 0 0 0 0 0 0 0 0 0 127 0" result="hardAlpha"/>
<feOffset dx="11" dy="-16"/>
<feGaussianBlur stdDeviation="3.75"/>
<feComposite in2="hardAlpha" operator="out"/>
<feColorMatrix type="matrix" values="0 0 0 0 0 0 0 0 0 0 0 0 0 0 0 0 0 0 0.25 0"/>
<feBlend mode="normal" in2="BackgroundImageFix" result="effect1_dropShadow_109_35"/>
<feBlend mode="normal" in="SourceGraphic" in2="effect1_dropShadow_109_35" result="shape"/>
</filter>
<filter id="filter1_d_109_35" x="268.302" y="0" width="290.198" height="129.632" filterUnits="userSpaceOnUse" color-interpolation-filters="sRGB">
<feFlood flood-opacity="0" result="BackgroundImageFix"/>
<feColorMatrix in="SourceAlpha" type="matrix" values="0 0 0 0 0 0 0 0 0 0 0 0 0 0 0 0 0 0 127 0" result="hardAlpha"/>
<feOffset dx="11" dy="-16"/>
<feGaussianBlur stdDeviation="3.75"/>
<feComposite in2="hardAlpha" operator="out"/>
<feColorMatrix type="matrix" values="0 0 0 0 0 0 0 0 0 0 0 0 0 0 0 0 0 0 0.25 0"/>
<feBlend mode="normal" in2="BackgroundImageFix" result="effect1_dropShadow_109_35"/>
<feBlend mode="normal" in="SourceGraphic" in2="effect1_dropShadow_109_35" result="shape"/>
</filter>
</defs>
</svg>
