<svg width="157" height="161" viewBox="0 0 157 161" fill="none" xmlns="http://www.w3.org/2000/svg">
<g filter="url(#filter0_d_595_66)">
<path d="M112.058 103.332C117.615 112.139 120.234 116.815 120.234 121.692C120.234 131.324 113.126 135.995 103.552 135.995C99.3311 135.995 96.6067 135.989 89.7213 132.384C89.7213 132.384 85.2599 128.274 74.8194 128.696C64.2816 128.277 59.8175 132.435 59.8175 132.435C52.9321 136.038 50.3051 136 46.0899 136C36.5152 136 29.4025 131.335 29.4025 121.698C29.4025 116.82 32.0295 112.15 37.5839 103.338C37.5839 103.338 48.0839 85.7863 57.1824 77.5294C63.7567 71.571 73.3423 71.5928 73.3423 71.5928H76.2993C76.2993 71.5928 86.3042 71.5656 92.4673 77.5294C101.284 86.0858 112.058 103.335 112.058 103.332ZM51.4278 59.8557C61.4381 59.8557 69.5519 47.1273 69.5519 31.4278C69.5519 15.7284 61.4381 3 51.4278 3C41.4175 3 33.3038 15.7284 33.3038 31.4278C33.3038 47.1273 41.4175 59.8557 51.4278 59.8557ZM34.0586 87.3875C41.4365 83.959 43.1193 71.8025 37.8138 60.2342C32.5084 48.6659 22.2275 42.0648 14.8497 45.4906C7.47184 48.9164 5.79173 61.0757 11.0945 72.644C16.3999 84.2123 26.6808 90.8106 34.0586 87.3875ZM93.5657 59.8557C103.576 59.8557 111.692 47.1273 111.692 31.4278C111.692 15.7284 103.576 3 93.5657 3C83.5555 3 75.4417 15.7284 75.4417 31.4278C75.4417 47.1273 83.5555 59.8557 93.5657 59.8557ZM130.147 45.4879C122.766 42.0593 112.488 48.6604 107.182 60.2315C101.877 71.8025 103.56 83.959 110.94 87.3875C118.321 90.8134 128.599 84.2123 133.905 72.644C139.21 61.0757 137.527 48.9164 130.147 45.4879Z" fill="white"/>
</g>
<defs>
<filter id="filter0_d_595_66" x="0" y="0" width="157" height="161" filterUnits="userSpaceOnUse" color-interpolation-filters="sRGB">
<feFlood flood-opacity="0" result="BackgroundImageFix"/>
<feColorMatrix in="SourceAlpha" type="matrix" values="0 0 0 0 0 0 0 0 0 0 0 0 0 0 0 0 0 0 127 0" result="hardAlpha"/>
<feOffset dx="6" dy="11"/>
<feGaussianBlur stdDeviation="7"/>
<feComposite in2="hardAlpha" operator="out"/>
<feColorMatrix type="matrix" values="0 0 0 0 0 0 0 0 0 0 0 0 0 0 0 0 0 0 0.25 0"/>
<feBlend mode="normal" in2="BackgroundImageFix" result="effect1_dropShadow_595_66"/>
<feBlend mode="normal" in="SourceGraphic" in2="effect1_dropShadow_595_66" result="shape"/>
</filter>
</defs>
</svg>
